<?xml version="1.0" encoding="utf-8"?>
<!-- Generator: Adobe Illustrator 22.1.0, SVG Export Plug-In . SVG Version: 6.00 Build 0)  -->
<svg version="1.1" id="Capa_1" xmlns="http://www.w3.org/2000/svg" xmlns:xlink="http://www.w3.org/1999/xlink" x="0px" y="0px"
	 viewBox="0 0 685.3 640.1" style="enable-background:new 0 0 685.3 640.1;" xml:space="preserve">
<style type="text/css">
	.st0{fill:#5CB4FF;}
	.st1{fill:#E5E9EA;}
	.st2{fill:#C1C4C5;}
	.st3{fill:#0795FF;}
	.st4{fill:#394C98;}
	.st5{fill:#E0E0E0;}
	.st6{fill:#EEEEEE;}
	.st7{fill:#0783DE;}
	.st8{fill:none;stroke:#E5E9EA;stroke-width:4;stroke-miterlimit:10;}
	.st9{fill:#077DE8;}
	.st10{opacity:0.45;fill:#94A3BB;}
	.st11{fill:#DEDEDF;}
	.st12{fill:#88BDE7;}
	.st13{fill:#0782D7;}
	.st14{opacity:0.63;}
	.st15{fill:#94A3BB;}
	.st16{opacity:0.32;}
	.st17{clip-path:url(#SVGID_2_);}
	.st18{clip-path:url(#SVGID_4_);}
	.st19{fill:url(#XMLID_6_);}
	.st20{fill:url(#XMLID_7_);}
	.st21{fill:url(#XMLID_11_);}
	.st22{fill:#2B6CD7;}
	.st23{fill:#64C7F3;}
	.st24{fill:#6D6D6C;}
	.st25{fill:#076CD4;}
</style>
<g>
	<rect x="413.3" y="333.9" class="st1" width="116.4" height="196"/>
	<rect x="427.8" y="346.4" class="st2" width="91.9" height="169.5"/>
	<rect x="165" y="333.7" class="st3" width="239.8" height="190"/>
	<polygon class="st4" points="160.1,273.3 187.1,201.7 525.1,201.7 553.9,273.7 	"/>
	<g>
		<path class="st4" d="M551,520.8V308.2h-30.7h-32.8h-32.8h-32.8h-32.8h-32.8h-32.8h-32.8h-32.8h-32.8h-32.8h-31.5V544H551V520.8
			L551,520.8z M362.4,520.8H210.5 M198.3,520.8h-16.3V343.8h213.2v177.1h-20.4 M515,520.8v-0.2h-95.8v0.2h4.3V343.1h100.3v177.7H515
			z"/>
	</g>
	<g>
		<circle class="st3" cx="527.8" cy="119.8" r="7.3"/>
	</g>
	<g>
		<path class="st3" d="M102,403.2c-14.3,0-25.9-11.6-25.9-25.9s11.6-25.9,25.9-25.9c14.3,0,25.9,11.6,25.9,25.9
			S116.3,403.2,102,403.2z M102,359.6c-9.7,0-17.6,7.9-17.6,17.6c0,9.7,7.9,17.6,17.6,17.6s17.6-7.9,17.6-17.6
			C119.7,367.5,111.8,359.6,102,359.6z"/>
	</g>
	<g>
		<path class="st3" d="M580.6,182.3c-0.7,0-1.4-0.2-1.9-0.6c-0.8-0.5-1.3-1.3-1.5-2.2l-4.1-19.9c-0.4-1.9,0.8-3.8,2.8-4.2l19.9-4.1
			c0.9-0.2,1.9,0,2.7,0.5c0.8,0.5,1.3,1.3,1.5,2.2l4.1,19.9c0.4,1.9-0.8,3.8-2.8,4.2l-19.9,4.1C581.1,182.3,580.9,182.3,580.6,182.3
			z M580.7,161.5l2.7,13l13-2.7l-2.7-13L580.7,161.5z"/>
	</g>
	<g>
		<path class="st5" d="M196.1,304.4c0,12.7,10.3,23,23,23l0,0c12.7,0,23-10.3,23-23V290h-46V304.4z"/>
		<path class="st5" d="M288,304.4c0,12.7,10.3,23,23,23h0c12.7,0,23-10.3,23-23V290h-46V304.4z"/>
		<path class="st5" d="M380,304.4c0,12.7,10.3,23,23,23h0c12.7,0,23-10.3,23-23V290h-46V304.4z"/>
		<path class="st5" d="M471.9,290v14.3c0,12.7,10.3,23,23,23l0,0c12.7,0,23-10.3,23-23V290H471.9z"/>
	</g>
	<g>
		<polygon class="st6" points="196.1,290 242.1,290 247.6,273.3 203.8,273.3 		"/>
		<polygon class="st6" points="288,290 334,290 335.1,273.3 291.3,273.3 		"/>
		<polygon class="st6" points="378.9,273.3 380,290 425.9,290 422.6,273.3 		"/>
		<polygon class="st6" points="510.2,273.3 466.4,273.3 471.9,290 517.9,290 		"/>
	</g>
	<g>
		<path class="st7" d="M150.1,304.4c0,12.7,10.3,23,23,23h0c12.7,0,23-10.3,23-23V290h-46V304.4z"/>
		<path class="st7" d="M242.1,304.4c0,12.7,10.3,23,23,23l0,0c12.7,0,23-10.3,23-23V290h-46V304.4z"/>
		<path class="st7" d="M334,304.4c0,12.7,10.3,23,23,23c12.7,0,23-10.3,23-23V290h-46V304.4z"/>
		<path class="st7" d="M425.9,304.4c0,12.7,10.3,23,23,23l0,0c12.7,0,23-10.3,23-23V290h-46V304.4z"/>
		<path class="st7" d="M517.9,290v14.3c0,12.7,10.3,23,23,23h0c12.7,0,23-10.3,23-23V290H517.9z"/>
	</g>
	<g>
		<polygon class="st3" points="150.1,290 196.1,290 203.8,273.3 160,273.3 		"/>
		<polygon class="st3" points="242.1,290 288,290 291.3,273.3 247.6,273.3 		"/>
		<polygon class="st3" points="335.1,273.3 334,290 380,290 378.9,273.3 		"/>
		<polygon class="st3" points="422.6,273.3 425.9,290 471.9,290 466.4,273.3 		"/>
		<polygon class="st3" points="553.9,273.3 510.2,273.3 517.9,290 563.8,290 		"/>
	</g>
	<circle class="st4" cx="442.2" cy="430.6" r="5.9"/>
	<rect x="183.6" y="345.2" class="st8" width="209.8" height="174.3"/>
	<rect x="208.8" y="453.2" class="st4" width="144.8" height="17"/>
	<rect x="217.3" y="460.3" class="st4" width="11.4" height="57.1"/>
	<rect x="332.4" y="460.3" class="st4" width="11.4" height="57.1"/>
	<rect x="220.2" y="407.7" class="st2" width="31.2" height="45.4"/>
	<rect x="312.5" y="426.2" class="st2" width="29.8" height="27"/>
	<rect x="264.2" y="389.3" class="st1" width="39.8" height="63.9"/>
</g>
</svg>
