<?xml version="1.0" encoding="utf-8"?>
<!-- Generator: Adobe Illustrator 22.1.0, SVG Export Plug-In . SVG Version: 6.00 Build 0)  -->
<svg version="1.1" id="Capa_1" xmlns="http://www.w3.org/2000/svg" xmlns:xlink="http://www.w3.org/1999/xlink" x="0px" y="0px"
	 viewBox="0 0 872 828" style="enable-background:new 0 0 872 828;" xml:space="preserve">
<style type="text/css">
	.st0{fill:#5CB4FF;}
	.st1{fill:#E5E9EA;}
	.st2{fill:#C1C4C5;}
	.st3{fill:#0795FF;}
	.st4{fill:#394C98;}
	.st5{fill:#E0E0E0;}
	.st6{fill:#EEEEEE;}
	.st7{fill:#0783DE;}
	.st8{fill:none;stroke:#E5E9EA;stroke-width:4;stroke-miterlimit:10;}
	.st9{fill:#077DE8;}
	.st10{opacity:0.45;fill:#94A3BB;}
	.st11{fill:#DEDEDF;}
	.st12{fill:#88BDE7;}
	.st13{fill:#0782D7;}
	.st14{opacity:0.63;}
	.st15{fill:#94A3BB;}
	.st16{opacity:0.32;}
	.st17{clip-path:url(#SVGID_2_);}
	.st18{clip-path:url(#SVGID_4_);}
	.st19{fill:url(#XMLID_6_);}
	.st20{fill:url(#XMLID_7_);}
	.st21{fill:url(#XMLID_11_);}
	.st22{fill:#2B6CD7;}
	.st23{fill:#64C7F3;}
	.st24{fill:#6D6D6C;}
	.st25{fill:#076CD4;}
</style>
<rect x="145.3" y="481" class="st0" width="55.2" height="260.8"/>
<rect x="739.3" y="481" class="st0" width="55.2" height="260.8"/>
<g>
	<rect x="145.3" y="480.6" class="st4" width="12.3" height="260.9"/>
	<rect x="172.9" y="480.6" class="st4" width="12.3" height="260.9"/>
	<polygon class="st4" points="198.2,414.8 268.4,468.3 267.8,741.5 198.2,740.8 	"/>
	<g>
		
			<rect x="787.5" y="480.6" transform="matrix(-1 -4.504542e-11 4.504542e-11 -1 1587.214 1222.0387)" class="st4" width="12.3" height="260.9"/>
		
			<rect x="759.8" y="480.6" transform="matrix(-1 -4.489710e-11 4.489710e-11 -1 1531.9722 1222.0387)" class="st4" width="12.3" height="260.9"/>
		<polygon class="st4" points="746.8,414.8 676.6,468.3 677.3,741.5 746.8,740.8 		"/>
	</g>
	<rect x="532.5" y="673.3" class="st3" width="35.8" height="68.5"/>
	<rect x="422" y="673.3" class="st0" width="103.3" height="68.5"/>
	<rect x="575.4" y="673.3" class="st2" width="35.8" height="68.5"/>
	<rect x="618.4" y="479.9" class="st9" width="49" height="57.3"/>
	<rect x="618.4" y="544.4" class="st9" width="49" height="57.3"/>
	<rect x="618.4" y="608.8" class="st9" width="49" height="57.3"/>
	<rect x="618.4" y="673.3" class="st9" width="49" height="68.5"/>
	<rect x="376" y="673.3" class="st3" width="38.9" height="68.5"/>
	<rect x="277.2" y="479.9" class="st9" width="48.6" height="57.3"/>
	<rect x="333" y="673.3" class="st2" width="35.8" height="68.5"/>
	<path class="st3" d="M612.1,244.7H332.6c-30.6,0-55.4,24.8-55.4,55.4v108.3h390.2V300C667.4,269.4,642.6,244.7,612.1,244.7z"/>
	<rect x="277.2" y="415.5" class="st9" width="48.6" height="57.3"/>
	<rect x="277.2" y="608.8" class="st9" width="48.6" height="57.3"/>
	<rect x="277.2" y="673.3" class="st9" width="48.6" height="68.5"/>
	<rect x="277.2" y="544.4" class="st9" width="48.6" height="57.3"/>
	<rect x="333" y="608.8" class="st3" width="81.8" height="57.3"/>
	<rect x="532.5" y="544.4" class="st3" width="78.8" height="57.3"/>
	<rect x="532.5" y="608.8" class="st3" width="78.8" height="57.3"/>
	<rect x="532.5" y="479.9" class="st3" width="78.8" height="57.3"/>
	<rect x="532.5" y="415.5" class="st3" width="78.8" height="57.3"/>
	<rect x="422" y="415.5" class="st0" width="103.3" height="57.3"/>
	<rect x="422" y="544.4" class="st0" width="103.3" height="57.3"/>
	<rect x="333" y="479.9" class="st3" width="81.8" height="57.3"/>
	<rect x="333" y="544.4" class="st3" width="81.8" height="57.3"/>
	<rect x="333" y="415.5" class="st3" width="81.8" height="57.3"/>
	<rect x="422" y="479.9" class="st0" width="103.3" height="57.3"/>
	<rect x="422" y="608.8" class="st0" width="103.3" height="57.3"/>
	<rect x="618.4" y="415.5" class="st9" width="49" height="57.3"/>
	<g>
		<path class="st4" d="M451.1,356.2c-4.6,0-8.4,3.8-8.4,8.4c0,4.6,3.8,8.4,8.4,8.4c4.6,0,8.4-3.8,8.4-8.4
			C459.5,359.9,455.7,356.2,451.1,356.2L451.1,356.2z M425.8,288.8v8.4h8.4l15.1,32l-5.9,10.1c-0.4,1.3-0.8,2.9-0.8,4.2
			c0,4.6,3.8,8.4,8.4,8.4h50.5v-8.4h-48.8c-0.4,0-0.8-0.4-0.8-0.8v-0.4l3.8-7.1h31.2c3.3,0,5.9-1.7,7.2-4.2l15.1-27.4
			c0.8-0.8,0.8-1.3,0.8-2.1c0-2.5-1.7-4.2-4.2-4.2h-62.3l-3.8-8.4H425.8z M493.2,356.2c-4.6,0-8.4,3.8-8.4,8.4
			c0,4.6,3.8,8.4,8.4,8.4c4.6,0,8.4-3.8,8.4-8.4C501.6,359.9,497.8,356.2,493.2,356.2L493.2,356.2z M493.2,356.2"/>
	</g>
	<g>
		<circle class="st3" cx="147.7" cy="363.4" r="6.3"/>
	</g>
	<g>
		<path class="st3" d="M211.5,356.3c-1.3,0-2.5-0.5-3.5-1.5l-31.5-35c-1.7-1.9-1.6-4.9,0.3-6.6c1.9-1.7,4.9-1.6,6.6,0.3l31.5,35
			c1.7,1.9,1.6,4.9-0.3,6.6C213.8,355.9,212.7,356.3,211.5,356.3z"/>
	</g>
	<g>
		<path class="st3" d="M756.3,371h-23.1c-1.3,0-2.4-0.7-3.1-1.8l-11.6-20c-0.6-1.1-0.6-2.5,0-3.6l11.6-20c0.6-1.1,1.8-1.8,3.1-1.8
			h23.1c1.3,0,2.4,0.7,3.1,1.8l11.6,20c0.6,1.1,0.6,2.5,0,3.6l-11.6,20C758.8,370.3,757.6,371,756.3,371z M735.3,363.9h19l9.5-16.5
			l-9.5-16.5h-19l-9.5,16.5L735.3,363.9z"/>
	</g>
</g>
</svg>
