<svg xmlns="http://www.w3.org/2000/svg" width="14" height="20" viewBox="0 0 14 20">
  <g id="Group_2468" data-name="Group 2468" transform="translate(-152.061 -241)">
    <g id="Group_2413" data-name="Group 2413" transform="translate(152.061 241)">
      <g id="Group_2410" data-name="Group 2410" transform="translate(0 0)">
        <path id="Path_697" data-name="Path 697" d="M35.022,1.2l-1.989,9-1.989-.4L32.834,2H23.387l1.691,7.8-1.989.4L21.1,1.2a.78.78,0,0,1,.2-.8.9.9,0,0,1,.8-.4H34.027a.9.9,0,0,1,.8.4A.78.78,0,0,1,35.022,1.2Z" transform="translate(-21.061 0)" fill="#a2a2a2"/>
      </g>
      <g id="Group_2412" data-name="Group 2412" transform="translate(0.984 7.172)">
        <g id="Group_2411" data-name="Group 2411">
          <path id="Path_698" data-name="Path 698" d="M32.044,19.994c-.2,0-.3,0-.4-.1l-3.58-1.8-3.58,1.8a1.084,1.084,0,0,1-1.094-.1.908.908,0,0,1-.3-1l.895-3.6L22.2,12.6a.912.912,0,0,1,0-1,1.043,1.043,0,0,1,.895-.5h2.387l1.691-3.4a1.026,1.026,0,0,1,1.79,0l1.691,3.4h2.387a1.043,1.043,0,0,1,.895.5.912.912,0,0,1,0,1l-1.79,2.6.895,3.6a.908.908,0,0,1-.3,1A1.432,1.432,0,0,1,32.044,19.994Zm-3.978-4c.2,0,.3,0,.4.1l2.088,1-.5-1.9a1.067,1.067,0,0,1,.1-.8l.994-1.4H30.055a.956.956,0,0,1-.895-.6l-1.094-2.2-1.094,2.2a1.143,1.143,0,0,1-.895.6H24.984l.994,1.4a.758.758,0,0,1,.1.8l-.5,1.9,2.088-1A.6.6,0,0,1,28.066,16Z" transform="translate(-22.05 -7.175)" fill="#a2a2a2"/>
        </g>
      </g>
    </g>
    <g id="Group_2416" data-name="Group 2416" transform="translate(157.768 243.699)">
      <path id="Path_699" data-name="Path 699" d="M29.485,5.3V6H27V5.4l1.193-1.1a.545.545,0,0,0,.3-.5c0-.2-.1-.3-.4-.3a.858.858,0,0,0-.6.3l-.7-.4a1.425,1.425,0,0,1,1.293-.7,1.058,1.058,0,0,1,1.193,1,1.352,1.352,0,0,1-.5,1l-.6.6h1.293Z" transform="translate(-26.8 -2.7)" fill="#a2a2a2"/>
    </g>
  </g>
</svg>
