<svg id="Group_2467" data-name="Group 2467" xmlns="http://www.w3.org/2000/svg" width="14" height="20" viewBox="0 0 14 20">
  <g id="Group_2405" data-name="Group 2405">
    <g id="Group_2402" data-name="Group 2402">
      <path id="Path_694" data-name="Path 694" d="M14,1.2l-2,9-2-.4L11.8,2H2.3L4,9.8l-2,.4-2-9A1.077,1.077,0,0,1,.2.4.91.91,0,0,1,1,0H13a.91.91,0,0,1,.8.4A1.077,1.077,0,0,1,14,1.2Z" fill="#ffad17"/>
    </g>
    <g id="Group_2404" data-name="Group 2404" transform="translate(0.95 7.072)">
      <g id="Group_2403" data-name="Group 2403">
        <path id="Path_695" data-name="Path 695" d="M11,19.994c-.2,0-.3,0-.4-.1L7,18.1l-3.6,1.8a1.1,1.1,0,0,1-1.1-.1.9.9,0,0,1-.3-1l.9-3.6L1.1,12.6a.908.908,0,0,1,0-1A.961.961,0,0,1,2,11H4.4L6.1,7.6a1.034,1.034,0,0,1,1.8,0L9.6,11H12a1.05,1.05,0,0,1,.9.5.908.908,0,0,1,0,1l-1.8,2.6.9,3.6a.9.9,0,0,1-.3,1A1.33,1.33,0,0,1,11,19.994ZM7,16c.2,0,.3,0,.4.1l2.1,1L9,15.2a1.344,1.344,0,0,1,.2-.8l1-1.4H9a.961.961,0,0,1-.9-.6L7,10.2,5.9,12.4A.961.961,0,0,1,5,13H3.9l1,1.4a2.483,2.483,0,0,1,.1.8l-.5,1.9,2.1-1C6.7,16,6.8,16,7,16Z" transform="translate(-0.95 -7.075)" fill="#ffad17"/>
      </g>
    </g>
  </g>
  <g id="Group_2406" data-name="Group 2406" transform="translate(5.5 1.999)">
    <line id="Line_3" data-name="Line 3" x1="3" fill="#767677"/>
  </g>
  <g id="Group_2407" data-name="Group 2407" transform="translate(5.5 1.999)">
    <line id="Line_4" data-name="Line 4" x1="3" fill="#767677"/>
  </g>
  <g id="Group_2408" data-name="Group 2408" transform="translate(6.1 2.799)">
    <path id="Path_696" data-name="Path 696" d="M7.6,2.8V6H6.7V3.5H6.1V2.8Z" transform="translate(-6.1 -2.8)" fill="#ffad17"/>
  </g>
</svg>
