<?xml version="1.0" encoding="utf-8"?>
<!-- Generator: Adobe Illustrator 22.1.0, SVG Export Plug-In . SVG Version: 6.00 Build 0)  -->
<svg version="1.1" id="Capa_1" xmlns="http://www.w3.org/2000/svg" xmlns:xlink="http://www.w3.org/1999/xlink" x="0px" y="0px"
	 viewBox="0 0 1096 772" style="enable-background:new 0 0 1096 772;" xml:space="preserve">
<style type="text/css">
	.st0{fill:#5CB4FF;}
	.st1{fill:#E5E9EA;}
	.st2{fill:#C1C4C5;}
	.st3{fill:#0795FF;}
	.st4{fill:#394C98;}
	.st5{fill:#E0E0E0;}
	.st6{fill:#EEEEEE;}
	.st7{fill:#0783DE;}
	.st8{fill:none;stroke:#E5E9EA;stroke-width:4;stroke-miterlimit:10;}
	.st9{fill:#077DE8;}
	.st10{opacity:0.45;fill:#94A3BB;}
	.st11{fill:#DEDEDF;}
	.st12{fill:#88BDE7;}
	.st13{fill:#0782D7;}
	.st14{opacity:0.63;}
	.st15{fill:#94A3BB;}
	.st16{opacity:0.32;}
	.st17{clip-path:url(#SVGID_2_);}
	.st18{clip-path:url(#SVGID_4_);}
	.st19{fill:url(#XMLID_6_);}
	.st20{fill:url(#XMLID_7_);}
	.st21{fill:url(#XMLID_11_);}
	.st22{fill:#2B6CD7;}
	.st23{fill:#64C7F3;}
	.st24{fill:#6D6D6C;}
	.st25{fill:#076CD4;}
</style>
<g>
	<path class="st25" d="M872.5,715c0,0-139.2-294.8-103.3-642l-288.8,3c0,0,58.4,345.7-116.7,636L872.5,715z"/>
	<g>
		<rect x="771.7" y="549.2" class="st4" width="196" height="165.8"/>
		<path class="st4" d="M801.9,579.3l23.9-429.2h20.4l22.2,434.6C868.4,584.6,801.9,576.6,801.9,579.3z"/>
		<polygon class="st4" points="879,568.7 896.8,196.2 917.1,196.2 935.8,581.1 		"/>
	</g>
	<polygon class="st3" points="691.7,281 604.7,331 587.7,281 502.7,330 484.7,281 399.7,329 381.7,281 296.7,330 278.7,281 
		185.7,335 185.7,715 711.7,717 711.7,339 	"/>
	<rect x="345.5" y="347" class="st3" width="61" height="61"/>
	<rect x="345.5" y="426.5" class="st3" width="61" height="61"/>
	<rect x="345.5" y="506" class="st3" width="61" height="61"/>
	<rect x="274.5" y="347" class="st3" width="61" height="61"/>
	<rect x="274.5" y="426.5" class="st3" width="61" height="61"/>
	<rect x="203.5" y="506" class="st3" width="61" height="61"/>
	<rect x="203.5" y="426.5" class="st3" width="61" height="61"/>
	<rect x="203.5" y="347" class="st3" width="61" height="61"/>
	<rect x="274.5" y="506" class="st3" width="61" height="61"/>
	<rect x="291.7" y="608" class="st3" width="61" height="99"/>
	<rect x="359.7" y="608" class="st3" width="61" height="99"/>
	<rect x="416.5" y="506" class="st3" width="61" height="61"/>
	<rect x="416.5" y="426.5" class="st3" width="61" height="61"/>
	<rect x="416.5" y="347" class="st3" width="61" height="61"/>
	<rect x="487.5" y="506" class="st3" width="61" height="61"/>
	<rect x="487.5" y="426.5" class="st3" width="61" height="61"/>
	<rect x="487.5" y="347" class="st3" width="61" height="61"/>
	<rect x="548.7" y="619.4" class="st3" width="54" height="87.6"/>
	<rect x="558.5" y="506" class="st3" width="61" height="61"/>
	<rect x="558.5" y="426.5" class="st3" width="61" height="61"/>
	<rect x="558.5" y="347" class="st3" width="61" height="61"/>
	<rect x="629.5" y="506" class="st3" width="61" height="61"/>
	<rect x="629.5" y="426.5" class="st3" width="61" height="61"/>
	<rect x="629.5" y="347" class="st3" width="61" height="61"/>
	<g>
		<rect x="384.4" y="610" class="st0" width="57" height="95"/>
		<path class="st6" d="M439.4,612v91h-53v-91H439.4 M443.4,608h-61v99h61V608L443.4,608z"/>
	</g>
	<g>
		<rect x="347.5" y="349" class="st0" width="57" height="57"/>
		<path class="st6" d="M402.5,351v53h-53v-53H402.5 M406.5,347h-61v61h61V347L406.5,347z"/>
	</g>
	<g>
		<rect x="418.5" y="349" class="st0" width="57" height="57"/>
		<path class="st6" d="M473.5,351v53h-53v-53H473.5 M477.5,347h-61v61h61V347L477.5,347z"/>
	</g>
	<g>
		<rect x="489.5" y="349" class="st0" width="57" height="57"/>
		<path class="st6" d="M544.5,351v53h-53v-53H544.5 M548.5,347h-61v61h61V347L548.5,347z"/>
	</g>
	<g>
		<rect x="560.5" y="349" class="st0" width="57" height="57"/>
		<path class="st6" d="M615.5,351v53h-53v-53H615.5 M619.5,347h-61v61h61V347L619.5,347z"/>
	</g>
	<g>
		<rect x="631.5" y="349" class="st0" width="57" height="57"/>
		<path class="st6" d="M686.5,351v53h-53v-53H686.5 M690.5,347h-61v61h61V347L690.5,347z"/>
	</g>
	<g>
		<rect x="347.5" y="428.5" class="st0" width="57" height="57"/>
		<path class="st6" d="M402.5,430.5v53h-53v-53H402.5 M406.5,426.5h-61v61h61V426.5L406.5,426.5z"/>
	</g>
	<g>
		<rect x="418.5" y="428.5" class="st0" width="57" height="57"/>
		<path class="st6" d="M473.5,430.5v53h-53v-53H473.5 M477.5,426.5h-61v61h61V426.5L477.5,426.5z"/>
	</g>
	<g>
		<rect x="489.5" y="428.5" class="st0" width="57" height="57"/>
		<path class="st6" d="M544.5,430.5v53h-53v-53H544.5 M548.5,426.5h-61v61h61V426.5L548.5,426.5z"/>
	</g>
	<g>
		<rect x="560.5" y="428.5" class="st0" width="57" height="57"/>
		<path class="st6" d="M615.5,430.5v53h-53v-53H615.5 M619.5,426.5h-61v61h61V426.5L619.5,426.5z"/>
	</g>
	<g>
		<rect x="631.5" y="428.5" class="st0" width="57" height="57"/>
		<path class="st6" d="M686.5,430.5v53h-53v-53H686.5 M690.5,426.5h-61v61h61V426.5L690.5,426.5z"/>
	</g>
	<g>
		<rect x="347.5" y="508" class="st0" width="57" height="57"/>
		<path class="st6" d="M402.5,510v53h-53v-53H402.5 M406.5,506h-61v61h61V506L406.5,506z"/>
	</g>
	<g>
		<rect x="418.5" y="508" class="st0" width="57" height="57"/>
		<path class="st6" d="M473.5,510v53h-53v-53H473.5 M477.5,506h-61v61h61V506L477.5,506z"/>
	</g>
	<g>
		<rect x="489.5" y="508" class="st0" width="57" height="57"/>
		<path class="st6" d="M544.5,510v53h-53v-53H544.5 M548.5,506h-61v61h61V506L548.5,506z"/>
	</g>
	<g>
		<rect x="560.5" y="508" class="st0" width="57" height="57"/>
		<path class="st6" d="M615.5,510v53h-53v-53H615.5 M619.5,506h-61v61h61V506L619.5,506z"/>
	</g>
	<g>
		<rect x="631.5" y="508" class="st0" width="57" height="57"/>
		<path class="st6" d="M686.5,510v53h-53v-53H686.5 M690.5,506h-61v61h61V506L690.5,506z"/>
	</g>
	<g>
		<rect x="452.4" y="610" class="st0" width="57" height="95"/>
		<g>
			<path class="st6" d="M507.4,612v91h-53v-91H507.4 M511.4,608h-61v99h61V608L511.4,608z"/>
		</g>
	</g>
	<g>
		<rect x="628.7" y="621.4" class="st2" width="50" height="83.6"/>
		<path class="st6" d="M676.7,623.4V703h-46v-79.6H676.7 M680.7,619.4h-54V707h54V619.4L680.7,619.4z"/>
	</g>
	<g>
		<g>
			<rect x="42.2" y="567.8" class="st4" width="304" height="150"/>
			<rect x="58.2" y="547.8" class="st4" width="249" height="29"/>
			<rect x="205.2" y="498.8" class="st4" width="104" height="90"/>
			<path class="st4" d="M132.2,362.8h1c16.6,0,30,13.4,30,30v156h-61v-156C102.2,376.3,115.7,362.8,132.2,362.8z"/>
			<path class="st4" d="M262.2,362.8h1c16.6,0,30,13.4,30,30v156h-61v-156C232.2,376.3,245.7,362.8,262.2,362.8z"/>
			<rect x="253.2" y="356.8" class="st4" width="18" height="18"/>
			<g>
				<path class="st4" d="M233.6,440.8h-34.3c-3.3,0-6-2.7-6-6v-84.3c0-3.3-2.7-6-6-6h-44.7c-3.3,0-6,2.7-6,6v11.3c0,3.3-2.7,6-6,6
					l0,0c-3.3,0-6-2.7-6-6v-23.3c0-3.3,2.7-6,6-6h68.7c3.3,0,6,2.7,6,6v84.3c0,3.3,2.7,6,6,6h22.3c3.3,0,6,2.7,6,6v0
					C239.6,438.2,236.9,440.8,233.6,440.8z"/>
			</g>
			<g>
				<path class="st4" d="M217.6,503.8L217.6,503.8c-2.8,0-5-2.2-5-5v-91.7c0-2.8,2.2-5,5-5h18c2.8,0,5,2.2,5,5v0c0,2.8-2.2,5-5,5h-8
					c-2.8,0-5,2.2-5,5v81.7C222.6,501.6,220.3,503.8,217.6,503.8z"/>
			</g>
			<g>
				<path class="st4" d="M237.1,473h-55.8c-1.9,0-3.5-1.6-3.5-3.5v-40.3c0-1.9-1.6-3.5-3.5-3.5h-20.5c-1.9,0-3.5-1.6-3.5-3.5l0,0
					c0-1.9,1.6-3.5,3.5-3.5h27.5c1.9,0,3.5,1.6,3.5,3.5v40.3c0,1.9,1.6,3.5,3.5,3.5h48.8c1.9,0,3.5,1.6,3.5,3.5l0,0
					C240.6,471.4,239,473,237.1,473z"/>
			</g>
			<g>
				<path class="st4" d="M80.2,551.5L80.2,551.5c-3.3,0-6-2.7-6-6v-102c0-3.3,2.7-6,6-6h23c3.3,0,6,2.7,6,6v0c0,3.3-2.7,6-6,6h-11
					c-3.3,0-6,2.7-6,6v90C86.2,548.8,83.5,551.5,80.2,551.5z"/>
			</g>
		</g>
		<g>
			<rect x="85.2" y="596.8" class="st11" width="36" height="18"/>
			<rect x="85.2" y="622.8" class="st11" width="36" height="18"/>
			<rect x="128.2" y="596.8" class="st11" width="36" height="18"/>
			<rect x="128.2" y="622.8" class="st11" width="36" height="18"/>
			<rect x="171.2" y="596.8" class="st11" width="36" height="18"/>
			<rect x="171.2" y="622.8" class="st11" width="36" height="18"/>
			<rect x="214.2" y="596.8" class="st11" width="36" height="18"/>
			<rect x="214.2" y="622.8" class="st11" width="36" height="18"/>
			<rect x="257.2" y="596.8" class="st11" width="36" height="18"/>
			<rect x="257.2" y="622.8" class="st11" width="36" height="18"/>
		</g>
	</g>
	<g>
		<path class="st3" d="M433.9,210.8c-1.5,0-2.9-0.8-3.6-2.3l-11.2-23.5l-26.6,12.7c-2,1-4.4,0.1-5.3-1.9l-11.2-23.5l-23.5,11.2
			c-2,1-4.4,0.1-5.3-1.9c-1-2-0.1-4.4,1.9-5.3l27.1-12.9c1-0.5,2.1-0.5,3.1-0.2c1,0.4,1.8,1.1,2.3,2l11.2,23.5l26.6-12.7
			c2-1,4.4-0.1,5.3,1.9l12.9,27.1c1,2,0.1,4.4-1.9,5.3C435,210.7,434.5,210.8,433.9,210.8z"/>
	</g>
	<g>
		<path class="st3" d="M1018.2,414.6c-0.7,0-1.3-0.2-1.9-0.6c-0.8-0.7-1.3-1.7-1.1-2.8l5.8-39.8c0.2-1.1,0.9-2,1.9-2.4
			c1-0.4,2.1-0.2,3,0.4l31.6,24.9c0.8,0.7,1.3,1.7,1.1,2.8c-0.2,1.1-0.9,2-1.9,2.4l-37.4,14.9C1019,414.5,1018.6,414.6,1018.2,414.6
			z M1026.2,377.4l-4.3,29.5l27.7-11L1026.2,377.4z"/>
	</g>
	<g>
		<circle class="st3" cx="995.6" cy="464.9" r="6.3"/>
	</g>
</g>
</svg>
